<svg width="143" height="44" viewBox="0 0 143 44" fill="none" xmlns="http://www.w3.org/2000/svg">
<path fill-rule="evenodd" clip-rule="evenodd" d="M22 44C34.1504 44 44 34.1503 44 22C44 9.84974 34.1504 0 22 0C9.84973 0 0 9.84974 0 22C0 34.1503 9.84973 44 22 44ZM25.3957 16.9978C27.271 15.1224 27.271 12.0819 25.3957 10.2065C23.5203 8.33116 20.4798 8.33116 18.6044 10.2065C16.7291 12.0819 16.7291 15.1224 18.6044 16.9978L22 20.3934L25.3957 16.9978ZM27.0022 25.3957C28.8776 27.2711 31.9181 27.2711 33.7935 25.3957C35.6688 23.5203 35.6688 20.4798 33.7935 18.6044C31.9181 16.7291 28.8776 16.7291 27.0022 18.6044L23.6066 22.0001L27.0022 25.3957ZM25.3957 33.7935C27.271 31.9181 27.271 28.8776 25.3957 27.0022L22 23.6066L18.6044 27.0022C16.7291 28.8776 16.7291 31.9181 18.6044 33.7935C20.4798 35.6689 23.5203 35.6689 25.3957 33.7935ZM10.2065 25.3957C8.33118 23.5203 8.33118 20.4798 10.2065 18.6044C12.0819 16.7291 15.1224 16.7291 16.9978 18.6044L20.3934 22.0001L16.9978 25.3957C15.1224 27.2711 12.0819 27.2711 10.2065 25.3957Z" fill="white"/>
<path d="M62.359 18.011C62.2823 17.2376 61.9531 16.6367 61.3714 16.2085C60.7898 15.7802 60.0004 15.5661 59.0032 15.5661C58.3256 15.5661 57.7536 15.6619 57.2869 15.8537C56.8203 16.0391 56.4624 16.2979 56.2131 16.6303C55.9702 16.9627 55.8487 17.3398 55.8487 17.7617C55.8359 18.1133 55.9094 18.4201 56.0692 18.6822C56.2354 18.9442 56.4624 19.1712 56.75 19.3629C57.0376 19.5483 57.37 19.7113 57.7472 19.8519C58.1243 19.9862 58.527 20.1012 58.9553 20.1971L60.7195 20.619C61.576 20.8107 62.3622 21.0664 63.0781 21.386C63.794 21.7056 64.4141 22.0987 64.9382 22.5653C65.4624 23.032 65.8683 23.5817 66.1559 24.2145C66.4499 24.8473 66.6001 25.5728 66.6065 26.391C66.6001 27.5927 66.2933 28.6346 65.6861 29.5167C65.0852 30.3924 64.2159 31.0732 63.0781 31.5589C61.9467 32.0384 60.582 32.2781 58.984 32.2781C57.3988 32.2781 56.0181 32.0352 54.842 31.5494C53.6722 31.0636 52.7582 30.3445 52.0998 29.392C51.4478 28.4332 51.1058 27.2475 51.0739 25.8349H55.0913C55.136 26.4933 55.3246 27.043 55.657 27.484C55.9957 27.9187 56.4464 28.2479 57.0089 28.4716C57.5778 28.6889 58.2202 28.7976 58.9361 28.7976C59.6392 28.7976 60.2496 28.6953 60.7674 28.4908C61.2915 28.2862 61.6974 28.0018 61.9851 27.6374C62.2727 27.2731 62.4165 26.8544 62.4165 26.3814C62.4165 25.9403 62.2855 25.5696 62.0234 25.2692C61.7678 24.9687 61.3906 24.7131 60.892 24.5021C60.3999 24.2912 59.7958 24.0994 59.0799 23.9268L56.9418 23.3899C55.2862 22.9872 53.979 22.3576 53.0202 21.5011C52.0614 20.6445 51.5852 19.4908 51.5916 18.0398C51.5852 16.8509 51.9016 15.8121 52.5408 14.9237C53.1864 14.0352 54.0717 13.3416 55.1967 12.843C56.3217 12.3445 57.6001 12.0952 59.032 12.0952C60.4893 12.0952 61.7614 12.3445 62.848 12.843C63.9411 13.3416 64.7912 14.0352 65.3984 14.9237C66.0057 15.8121 66.3189 16.8413 66.3381 18.011H62.359ZM73.4069 23.4858V32H69.3224V17.2727H73.2151V19.8711H73.3877C73.7137 19.0146 74.2602 18.337 75.0273 17.8384C75.7943 17.3335 76.7243 17.081 77.8174 17.081C78.8401 17.081 79.7318 17.3047 80.4925 17.7521C81.2531 18.1996 81.8444 18.8388 82.2662 19.6697C82.6881 20.4943 82.8991 21.4787 82.8991 22.6229V32H78.8145V23.3516C78.8209 22.4503 78.5908 21.7472 78.1242 21.2422C77.6576 20.7308 77.0152 20.4751 76.197 20.4751C75.6473 20.4751 75.1615 20.5934 74.7396 20.8299C74.3241 21.0664 73.9981 21.4116 73.7616 21.8654C73.5315 22.3129 73.4133 22.853 73.4069 23.4858ZM90.3178 32.2781C89.3782 32.2781 88.5408 32.1151 87.8058 31.7891C87.0707 31.4567 86.489 30.9677 86.0607 30.3221C85.6388 29.6701 85.4279 28.8583 85.4279 27.8867C85.4279 27.0685 85.5781 26.3814 85.8786 25.8253C86.179 25.2692 86.5881 24.8217 87.1058 24.483C87.6236 24.1442 88.2116 23.8885 88.87 23.7159C89.5348 23.5433 90.2315 23.4219 90.9602 23.3516C91.8168 23.2621 92.5071 23.179 93.0312 23.1023C93.5554 23.0192 93.9357 22.8977 94.1722 22.7379C94.4087 22.5781 94.527 22.3416 94.527 22.0284V21.9709C94.527 21.3636 94.3352 20.8938 93.9517 20.5614C93.5746 20.229 93.0376 20.0629 92.3409 20.0629C91.6058 20.0629 91.021 20.2259 90.5863 20.5518C90.1516 20.8714 89.864 21.2741 89.7234 21.7599L85.9457 21.4531C86.1374 20.5582 86.5146 19.7848 87.0771 19.1328C87.6396 18.4744 88.3651 17.9695 89.2536 17.6179C90.1484 17.2599 91.1839 17.081 92.3601 17.081C93.1783 17.081 93.9613 17.1768 94.7092 17.3686C95.4634 17.5604 96.1314 17.8576 96.7131 18.2603C97.3011 18.663 97.7646 19.1808 98.1033 19.8136C98.4421 20.44 98.6115 21.1911 98.6115 22.0668V32H94.7379V29.9577H94.6229C94.3864 30.418 94.07 30.8239 93.6737 31.1754C93.2773 31.5206 92.8011 31.7923 92.245 31.9904C91.6889 32.1822 91.0465 32.2781 90.3178 32.2781ZM91.4876 29.4592C92.0884 29.4592 92.619 29.3409 93.0792 29.1044C93.5394 28.8615 93.9006 28.5355 94.1626 28.1264C94.4247 27.7173 94.5558 27.2539 94.5558 26.7362V25.1733C94.4279 25.2564 94.2521 25.3331 94.0284 25.4034C93.8111 25.4673 93.565 25.5281 93.2901 25.5856C93.0153 25.6367 92.7404 25.6847 92.4656 25.7294C92.1907 25.7678 91.9414 25.8029 91.7177 25.8349C91.2383 25.9052 90.8196 26.017 90.4616 26.1705C90.1037 26.3239 89.8256 26.5316 89.6275 26.7937C89.4293 27.0494 89.3303 27.369 89.3303 27.7525C89.3303 28.3086 89.5316 28.7337 89.9343 29.0277C90.3434 29.3153 90.8612 29.4592 91.4876 29.4592ZM101.78 32V17.2727H105.74V19.8423H105.894C106.162 18.9283 106.613 18.2379 107.246 17.7713C107.878 17.2983 108.607 17.0618 109.432 17.0618C109.636 17.0618 109.857 17.0746 110.093 17.1001C110.33 17.1257 110.537 17.1609 110.716 17.2056V20.8299C110.525 20.7724 110.259 20.7212 109.921 20.6765C109.582 20.6317 109.272 20.6094 108.991 20.6094C108.39 20.6094 107.853 20.7404 107.38 21.0025C106.913 21.2582 106.542 21.6161 106.268 22.0763C105.999 22.5366 105.865 23.0671 105.865 23.668V32H101.78ZM116.529 27.7621L116.539 22.8626H117.133L121.851 17.2727H126.539L120.201 24.6747H119.233L116.529 27.7621ZM112.828 32V12.3636H116.913V32H112.828ZM122.033 32L117.699 25.5856L120.422 22.6996L126.817 32H122.033ZM131.302 37.5227C130.784 37.5227 130.298 37.4812 129.845 37.3981C129.397 37.3214 129.026 37.2223 128.732 37.1009L129.653 34.0518C130.132 34.1989 130.564 34.2788 130.947 34.2915C131.337 34.3043 131.673 34.2148 131.954 34.0231C132.242 33.8313 132.475 33.5053 132.654 33.0451L132.894 32.4219L127.611 17.2727H131.906L134.955 28.0881H135.108L138.186 17.2727H142.51L136.786 33.5916C136.512 34.3842 136.138 35.0746 135.665 35.6626C135.198 36.2571 134.607 36.7141 133.891 37.0337C133.175 37.3597 132.312 37.5227 131.302 37.5227Z" fill="white"/>
</svg>
